# xmcd CD database file
#
# Track frame offsets:
#	150
#	12298
#	18647
#	32488
#	39816
#	53417
#	69243
#	82810
#	100628
#	110415
#	117652
#	124419
#	134693
#	145601
#	160027
#	172074
#	180847
#	192062
#
# Disc length: 2923 seconds
#
# Revision: 0
# Processed by: cddbd v1.5PL3 Copyright (c) Steve Scherf et al.
# Submitted via: CDex 1.51
#
DISCID=dd0b6912
DTITLE=Johnny Cash - At Folsom Prison
DYEAR=1999
DGENRE=Country
TTITLE0=01 - Folsom Prison Blues
TTITLE1=02 - Busted
TTITLE2=03 - Dark As The Dungeon
TTITLE3=04 - I Still Miss Someone
TTITLE4=05 - Cocaine Blues
TTITLE5=06 - 25 Minutes To Go
TTITLE6=07 - Orange Blossom Special
TTITLE7=08 - The Long Black Veil
TTITLE8=09 - Send A Picture Of Mother
TTITLE9=10 - The Wall
TTITLE10=11 - Dirty Old Egg-Suckin' Dog
TTITLE11=12 - Flushed From The Bathroom Of Your Heart
TTITLE12=13 - Joe Bean
TTITLE13=14 - Jackson
TTITLE14=15 - Give My Love To Rose
TTITLE15=16 - I Got Stripes
TTITLE16=18 - Green, Green Grass Of Home
TTITLE17=19 - Greystone Chapel
EXTD=YEAR: 1999
EXTT0=
EXTT1=
EXTT2=
EXTT3=
EXTT4=
EXTT5=
EXTT6=
EXTT7=
EXTT8=
EXTT9=
EXTT10=
EXTT11=
EXTT12=
EXTT13=
EXTT14=
EXTT15=
EXTT16=
EXTT17=
PLAYORDER=
